<svg id="svg" version="1.1" width="80" height="25" viewBox="0 0 400 123.79935965848452" xmlns="http://www.w3.org/2000/svg"><g id="svgg"><path id="path0" d="M343.582 46.833 C 343.582 72.637,343.601 83.194,343.625 70.292 C 343.649 57.390,343.649 36.277,343.625 23.375 C 343.601 10.473,343.582 21.029,343.582 46.833 M359.246 13.083 C 359.246 20.325,359.267 23.263,359.292 19.613 C 359.317 15.962,359.317 10.037,359.292 6.446 C 359.267 2.855,359.246 5.842,359.246 13.083 M126.040 62.292 C 126.063 79.594,126.100 88.650,126.124 82.417 C 126.237 52.264,126.238 30.833,126.125 30.833 C 126.056 30.833,126.018 44.990,126.040 62.292 M182.000 37.333 C 181.804 37.608,181.681 37.833,181.727 37.833 C 181.773 37.833,181.971 37.608,182.167 37.333 C 182.362 37.058,182.485 36.833,182.439 36.833 C 182.394 36.833,182.196 37.058,182.000 37.333 M292.614 43.791 C 294.190 43.819,296.815 43.819,298.448 43.791 C 300.081 43.764,298.792 43.742,295.583 43.742 C 292.375 43.742,291.039 43.764,292.614 43.791 M321.220 43.792 C 323.679 43.818,327.654 43.818,330.053 43.792 C 332.453 43.766,330.442 43.744,325.583 43.744 C 320.725 43.744,318.762 43.766,321.220 43.792 M181.744 50.542 C 181.700 50.656,181.684 60.425,181.707 72.250 L 181.750 93.750 181.833 72.042 C 181.879 60.102,181.896 50.333,181.870 50.333 C 181.844 50.333,181.787 50.427,181.744 50.542 M141.748 72.083 C 141.748 83.908,141.767 88.770,141.792 82.888 C 141.816 77.005,141.816 67.330,141.792 61.388 C 141.767 55.445,141.748 60.258,141.748 72.083 M359.248 72.083 C 359.248 83.908,359.267 88.770,359.292 82.888 C 359.316 77.005,359.316 67.330,359.292 61.388 C 359.267 55.445,359.248 60.258,359.248 72.083 M256.375 65.948 C 256.535 65.990,256.798 65.990,256.958 65.948 C 257.119 65.906,256.987 65.872,256.667 65.872 C 256.346 65.872,256.215 65.906,256.375 65.948 M282.872 87.667 C 282.872 87.987,282.906 88.119,282.948 87.958 C 282.990 87.798,282.990 87.535,282.948 87.375 C 282.906 87.215,282.872 87.346,282.872 87.667 M282.872 89.333 C 282.872 89.654,282.906 89.785,282.948 89.625 C 282.990 89.465,282.990 89.202,282.948 89.042 C 282.906 88.881,282.872 89.013,282.872 89.333 M345.167 93.833 L 343.917 93.940 345.115 93.970 C 345.774 93.986,346.360 93.925,346.417 93.833 C 346.473 93.742,346.496 93.680,346.468 93.697 C 346.440 93.713,345.854 93.775,345.167 93.833 M272.625 93.958 C 274.481 93.985,277.519 93.985,279.375 93.958 C 281.231 93.931,279.712 93.909,276.000 93.909 C 272.287 93.909,270.769 93.931,272.625 93.958 " stroke="none" fill="#000000" fill-rule="evenodd"></path><path id="path1" d="M343.667 46.823 C 343.667 72.576,343.723 93.676,343.792 93.712 C 343.860 93.748,347.367 93.743,351.583 93.702 L 359.250 93.628 359.204 72.356 C 359.179 60.656,359.196 50.926,359.242 50.734 C 359.407 50.051,362.592 46.768,363.996 45.833 C 364.203 45.696,364.532 45.463,364.728 45.315 C 364.923 45.168,365.346 44.914,365.667 44.750 C 365.988 44.587,366.287 44.401,366.333 44.336 C 366.379 44.272,366.792 44.082,367.250 43.914 C 367.708 43.747,368.164 43.549,368.262 43.475 C 368.361 43.401,368.998 43.221,369.679 43.075 C 370.360 42.929,371.067 42.763,371.250 42.705 C 371.741 42.553,376.335 42.463,376.648 42.600 C 376.796 42.664,376.992 42.735,377.083 42.757 C 379.984 43.453,381.884 44.669,382.788 46.409 C 382.928 46.679,383.141 46.998,383.260 47.117 C 383.379 47.236,383.568 47.746,383.681 48.250 C 383.794 48.754,383.939 49.167,384.003 49.167 C 384.412 49.167,384.500 53.418,384.500 73.089 L 384.500 93.667 392.250 93.667 L 400.000 93.667 400.000 71.926 C 400.000 47.046,399.871 44.450,398.508 41.865 C 398.427 41.710,398.053 40.946,397.678 40.167 C 396.748 38.233,396.328 37.500,396.150 37.500 C 396.068 37.500,396.000 37.412,396.000 37.306 C 396.000 36.794,392.983 33.895,391.333 32.820 C 390.050 31.986,387.763 30.867,387.077 30.738 C 386.759 30.678,386.500 30.575,386.500 30.508 C 386.500 30.440,385.844 30.257,385.042 30.100 C 384.240 29.943,383.283 29.725,382.917 29.616 C 382.004 29.343,373.877 29.339,373.317 29.611 C 373.097 29.718,372.429 29.893,371.833 30.001 C 371.238 30.108,370.525 30.296,370.250 30.418 C 369.975 30.540,369.563 30.693,369.333 30.757 C 369.104 30.822,368.451 31.090,367.882 31.354 C 367.313 31.618,366.769 31.833,366.674 31.833 C 366.578 31.833,366.500 31.899,366.500 31.980 C 366.500 32.060,366.256 32.225,365.958 32.345 C 365.660 32.466,365.379 32.606,365.333 32.657 C 365.287 32.708,364.800 33.048,364.250 33.413 C 362.796 34.376,360.471 36.529,359.205 38.083 L 358.662 38.750 358.770 36.667 C 358.829 35.521,358.940 34.462,359.016 34.313 C 359.169 34.017,359.181 32.438,359.172 13.125 L 359.167 0.000 351.417 0.000 L 343.667 0.000 343.667 46.823 M301.333 22.083 L 301.333 30.833 295.583 30.833 L 289.833 30.833 289.833 37.250 L 289.833 43.667 295.583 43.667 L 301.333 43.667 301.336 61.375 C 301.339 78.097,301.421 81.707,301.818 82.458 C 301.902 82.619,302.061 83.200,302.171 83.750 C 302.281 84.300,302.465 84.938,302.581 85.167 C 302.696 85.396,302.910 85.846,303.055 86.167 C 304.188 88.673,306.640 91.238,309.111 92.501 C 309.737 92.821,310.287 93.131,310.333 93.189 C 310.379 93.247,310.790 93.420,311.246 93.574 C 311.702 93.729,312.152 93.915,312.246 93.989 C 312.340 94.063,312.829 94.213,313.333 94.323 C 313.837 94.434,314.400 94.588,314.583 94.667 C 316.404 95.450,327.707 95.550,331.167 94.814 C 331.579 94.726,332.442 94.553,333.083 94.431 C 333.725 94.308,334.569 94.111,334.958 93.994 L 335.667 93.781 335.667 87.390 L 335.667 81.000 335.292 81.005 C 335.085 81.008,334.204 81.163,333.333 81.349 C 328.725 82.337,321.980 82.506,320.917 81.662 C 320.825 81.589,320.416 81.396,320.008 81.233 C 319.047 80.849,317.773 79.515,317.505 78.612 C 317.392 78.230,317.213 77.811,317.108 77.683 C 316.968 77.511,316.904 72.950,316.870 60.555 L 316.823 43.661 325.668 43.670 C 330.533 43.674,334.585 43.634,334.673 43.579 C 334.771 43.519,334.833 41.016,334.833 37.157 L 334.833 30.833 325.833 30.833 L 316.833 30.833 316.833 22.083 L 316.833 13.333 309.083 13.333 L 301.333 13.333 301.333 22.083 M157.003 29.449 C 156.592 29.489,156.217 29.579,156.169 29.648 C 156.122 29.717,155.551 29.866,154.901 29.980 C 154.251 30.094,153.511 30.295,153.257 30.427 C 153.003 30.559,152.687 30.667,152.555 30.667 C 152.316 30.667,149.492 31.833,149.333 31.997 C 149.287 32.044,148.894 32.262,148.459 32.481 C 147.467 32.980,146.053 33.876,145.476 34.372 C 145.234 34.580,144.677 35.050,144.238 35.417 C 143.015 36.437,141.440 38.094,140.880 38.950 C 140.512 39.511,140.381 39.305,140.248 37.959 C 140.183 37.294,140.074 36.675,140.006 36.583 C 139.937 36.492,139.755 35.329,139.600 34.000 C 139.445 32.671,139.233 31.414,139.130 31.206 L 138.942 30.829 132.596 30.873 L 126.250 30.917 126.208 62.292 L 126.166 93.667 133.958 93.667 L 141.750 93.667 141.704 72.375 C 141.679 60.665,141.698 50.919,141.746 50.718 C 141.852 50.280,144.686 47.418,145.359 47.070 C 145.620 46.935,145.833 46.757,145.833 46.674 C 145.833 46.590,145.970 46.479,146.137 46.426 C 146.304 46.373,146.586 46.195,146.762 46.031 C 147.153 45.668,149.527 44.325,150.333 44.011 C 150.654 43.886,151.142 43.686,151.417 43.567 C 156.533 41.348,162.900 42.668,164.527 46.285 C 164.701 46.671,164.903 47.023,164.976 47.069 C 165.050 47.114,165.210 47.586,165.333 48.117 C 165.456 48.649,165.620 49.168,165.699 49.272 C 166.023 49.700,166.159 57.258,166.163 74.958 L 166.167 93.667 173.917 93.667 L 181.667 93.667 181.667 72.151 L 181.667 50.635 182.458 49.682 C 182.894 49.158,183.800 48.284,184.472 47.740 C 185.143 47.195,185.781 46.673,185.888 46.580 C 186.599 45.959,189.992 44.000,190.355 44.000 C 190.444 44.000,190.815 43.856,191.180 43.679 C 191.545 43.503,192.343 43.233,192.953 43.080 C 193.563 42.927,194.216 42.756,194.406 42.698 C 195.203 42.457,199.239 42.593,200.250 42.895 C 203.187 43.771,205.191 46.375,205.653 49.917 C 206.015 52.696,206.045 54.258,206.108 73.708 L 206.172 93.667 213.932 93.667 L 221.692 93.667 221.638 71.008 C 221.595 53.162,221.539 48.306,221.375 48.142 C 221.260 48.027,221.167 47.639,221.167 47.278 C 221.167 46.434,220.673 43.301,220.505 43.083 C 220.435 42.992,220.323 42.617,220.256 42.250 C 220.190 41.883,220.039 41.396,219.921 41.167 C 219.803 40.938,219.420 40.169,219.070 39.458 C 218.721 38.748,218.374 38.167,218.301 38.167 C 218.227 38.167,218.167 38.083,218.167 37.981 C 218.167 37.382,214.121 33.000,213.568 33.000 C 213.439 33.000,213.333 32.937,213.333 32.860 C 213.333 32.782,213.052 32.576,212.708 32.401 C 212.365 32.226,212.046 32.042,212.000 31.992 C 211.789 31.760,210.350 31.024,209.750 30.841 C 209.383 30.730,208.858 30.538,208.583 30.417 C 208.308 30.295,207.596 30.109,207.000 30.003 C 206.404 29.898,205.767 29.725,205.583 29.620 C 205.139 29.365,198.389 29.250,197.167 29.476 C 193.653 30.127,191.462 30.808,189.417 31.886 C 189.233 31.982,188.858 32.173,188.583 32.310 C 188.154 32.524,186.396 33.658,185.000 34.620 C 184.280 35.117,180.947 38.577,180.250 39.552 C 179.435 40.691,179.521 40.698,178.917 39.453 C 178.135 37.843,176.732 35.873,175.504 34.659 C 174.505 33.672,174.007 33.296,172.083 32.074 C 171.437 31.664,169.307 30.674,169.061 30.670 C 168.957 30.668,168.664 30.559,168.410 30.427 C 168.156 30.295,167.416 30.096,166.766 29.984 C 166.115 29.872,165.478 29.698,165.349 29.598 C 165.113 29.415,158.531 29.296,157.003 29.449 M249.917 29.516 C 246.835 29.924,246.138 30.027,245.000 30.243 C 242.545 30.708,239.352 31.540,238.250 32.003 C 238.067 32.080,237.514 32.270,237.023 32.424 C 236.531 32.579,235.931 32.809,235.690 32.935 C 235.448 33.061,235.166 33.165,235.064 33.166 C 234.962 33.166,234.681 33.322,234.439 33.512 L 234.000 33.858 234.000 39.684 C 234.000 46.286,233.906 45.895,235.383 45.444 C 236.524 45.096,238.165 44.527,238.583 44.335 C 238.767 44.250,239.442 44.056,240.083 43.904 C 240.725 43.751,241.325 43.570,241.417 43.501 C 241.508 43.433,241.883 43.326,242.250 43.264 C 242.617 43.202,243.521 43.004,244.259 42.823 C 247.376 42.061,256.833 41.437,256.833 41.994 C 256.833 42.089,257.040 42.168,257.292 42.169 C 258.123 42.174,261.388 43.167,261.667 43.500 C 261.712 43.555,262.087 43.796,262.500 44.035 C 264.349 45.110,266.313 47.848,266.617 49.775 C 266.673 50.128,266.784 50.460,266.865 50.514 C 266.946 50.567,267.059 51.646,267.116 52.912 L 267.220 55.213 266.402 55.091 C 265.952 55.024,265.508 54.911,265.417 54.840 C 265.325 54.769,264.612 54.618,263.833 54.504 C 263.054 54.390,262.267 54.235,262.083 54.157 C 260.861 53.643,249.427 53.515,247.750 53.997 C 247.383 54.102,246.483 54.306,245.750 54.451 C 245.017 54.595,244.379 54.767,244.333 54.832 C 244.287 54.898,243.862 55.044,243.389 55.156 C 242.915 55.268,242.390 55.464,242.222 55.591 C 242.054 55.719,241.804 55.828,241.667 55.834 C 241.439 55.845,240.184 56.462,238.351 57.465 C 237.967 57.675,237.515 57.975,237.346 58.132 C 237.178 58.289,236.835 58.567,236.584 58.750 C 235.959 59.207,233.659 61.485,233.250 62.051 C 233.067 62.305,232.797 62.641,232.651 62.798 C 232.504 62.955,232.280 63.327,232.152 63.625 C 232.023 63.923,231.874 64.167,231.819 64.167 C 231.764 64.167,231.437 64.785,231.091 65.542 C 230.150 67.603,230.046 67.865,229.915 68.500 C 229.848 68.821,229.749 69.158,229.693 69.250 C 229.638 69.342,229.577 69.492,229.558 69.583 C 229.539 69.675,229.444 70.125,229.346 70.583 C 228.628 73.952,229.233 81.625,230.331 83.083 C 230.400 83.175,230.550 83.550,230.664 83.917 C 230.885 84.625,232.456 87.379,232.693 87.472 C 232.770 87.503,232.833 87.609,232.833 87.708 C 232.833 87.904,233.136 88.250,234.542 89.667 C 235.336 90.467,236.207 91.243,236.750 91.635 C 237.278 92.016,238.644 92.838,239.000 92.989 C 239.229 93.086,239.529 93.232,239.667 93.313 C 240.319 93.697,241.496 94.162,242.250 94.333 C 242.708 94.437,243.217 94.594,243.381 94.683 C 244.916 95.512,254.976 95.516,256.073 94.688 C 256.170 94.615,256.756 94.422,257.375 94.259 C 257.994 94.096,258.500 93.913,258.500 93.851 C 258.500 93.790,258.837 93.640,259.250 93.518 C 259.662 93.396,260.000 93.236,260.000 93.162 C 260.000 93.087,260.216 92.979,260.479 92.921 C 260.743 92.863,261.208 92.632,261.512 92.408 C 261.816 92.184,262.163 92.000,262.284 92.000 C 262.405 92.000,262.632 91.850,262.789 91.667 C 262.946 91.483,263.132 91.333,263.203 91.333 C 263.274 91.333,263.726 91.052,264.208 90.708 C 265.399 89.858,265.297 89.942,267.703 87.821 C 268.004 87.556,268.293 87.337,268.345 87.336 C 268.397 87.335,268.547 88.777,268.678 90.542 L 268.917 93.750 275.917 93.750 L 282.917 93.750 282.861 90.833 C 282.830 89.229,282.743 78.954,282.667 68.000 C 282.535 48.886,282.481 46.667,282.149 46.667 C 282.067 46.667,282.000 46.455,282.000 46.197 C 282.000 45.681,281.605 44.202,281.258 43.417 C 281.137 43.142,280.981 42.729,280.913 42.500 C 280.844 42.271,280.740 42.046,280.681 42.000 C 280.622 41.954,280.434 41.598,280.262 41.208 C 280.090 40.819,279.886 40.500,279.808 40.500 C 279.730 40.500,279.667 40.414,279.667 40.309 C 279.667 39.586,276.303 35.782,274.792 34.794 C 274.356 34.510,274.000 34.229,274.000 34.170 C 274.000 34.111,273.737 33.959,273.417 33.833 C 273.096 33.707,272.833 33.561,272.833 33.507 C 272.833 33.402,270.935 32.428,269.583 31.839 C 269.125 31.639,268.626 31.410,268.475 31.330 C 268.323 31.250,267.723 31.065,267.141 30.920 C 266.559 30.774,265.933 30.583,265.750 30.494 C 265.368 30.309,262.145 29.706,260.417 29.496 C 258.976 29.321,251.282 29.336,249.917 29.516 M261.167 66.168 C 261.762 66.244,262.512 66.354,262.833 66.412 C 263.154 66.471,264.092 66.628,264.917 66.762 C 265.742 66.896,266.585 67.043,266.792 67.089 L 267.167 67.173 267.167 71.813 L 267.167 76.453 265.914 77.680 C 264.849 78.724,263.956 79.409,262.073 80.625 C 261.895 80.740,261.563 80.913,261.333 81.010 C 261.104 81.107,260.539 81.364,260.078 81.581 C 259.617 81.798,259.017 82.029,258.745 82.094 C 258.473 82.159,258.175 82.267,258.083 82.332 C 257.145 83.007,250.845 83.015,249.917 82.343 C 249.825 82.277,249.487 82.120,249.167 81.996 C 247.976 81.532,246.000 79.796,246.000 79.213 C 246.000 79.118,245.897 78.956,245.772 78.852 C 245.533 78.653,245.047 77.234,244.955 76.465 C 244.926 76.216,244.849 75.960,244.784 75.895 C 244.581 75.692,244.656 74.070,244.920 72.972 C 245.363 71.126,245.510 70.667,245.655 70.667 C 245.733 70.667,245.840 70.498,245.892 70.292 C 246.675 67.181,253.878 65.236,261.167 66.168 " stroke="none" fill="#444444" fill-rule="evenodd"></path><path id="path2" d="" stroke="none" fill="#005500" fill-rule="evenodd"></path><path id="path3" d="M27.625 29.446 C 27.190 29.486,26.833 29.589,26.833 29.676 C 26.833 29.762,26.617 29.833,26.352 29.833 C 25.713 29.833,23.128 30.327,22.917 30.490 C 22.825 30.560,22.226 30.747,21.587 30.904 C 20.947 31.061,20.347 31.248,20.253 31.319 C 20.160 31.390,19.727 31.545,19.292 31.662 C 18.856 31.780,18.500 31.930,18.500 31.995 C 18.500 32.061,18.181 32.208,17.792 32.323 C 17.402 32.439,16.971 32.626,16.833 32.739 C 16.696 32.852,16.340 33.042,16.042 33.159 C 15.744 33.277,15.500 33.440,15.500 33.520 C 15.500 33.601,15.418 33.667,15.317 33.667 C 15.050 33.667,13.167 34.855,13.167 35.024 C 13.167 35.102,13.081 35.167,12.977 35.167 C 12.188 35.167,6.167 41.176,6.167 41.964 C 6.167 42.056,6.054 42.174,5.917 42.227 C 5.779 42.280,5.667 42.396,5.667 42.486 C 5.667 42.576,5.442 42.983,5.167 43.391 C 4.892 43.798,4.667 44.208,4.667 44.302 C 4.667 44.396,4.604 44.497,4.528 44.528 C 4.367 44.592,3.167 47.054,3.167 47.320 C 3.167 47.419,3.102 47.500,3.023 47.500 C 2.944 47.500,2.746 47.931,2.583 48.458 C 2.421 48.985,2.228 49.493,2.156 49.586 C 2.084 49.678,1.933 50.128,1.822 50.586 C 1.710 51.043,1.559 51.494,1.486 51.588 C 1.413 51.683,1.230 52.470,1.080 53.338 C 0.930 54.206,0.741 55.067,0.660 55.250 C -0.009 56.768,-0.011 69.610,0.657 71.083 C 0.740 71.267,0.933 72.148,1.086 73.042 C 1.239 73.935,1.417 74.667,1.481 74.667 C 1.545 74.667,1.698 75.117,1.820 75.667 C 1.942 76.217,2.089 76.667,2.147 76.667 C 2.205 76.667,2.350 76.985,2.469 77.375 C 2.699 78.125,4.048 80.965,4.508 81.667 C 4.658 81.896,4.997 82.421,5.260 82.833 C 5.524 83.246,5.834 83.696,5.951 83.833 C 6.067 83.971,6.574 84.583,7.078 85.193 C 8.225 86.582,8.748 87.104,10.141 88.257 C 10.751 88.762,11.358 89.264,11.490 89.373 C 12.030 89.820,13.884 91.008,14.463 91.277 C 14.804 91.436,15.121 91.614,15.167 91.672 C 15.299 91.840,17.027 92.621,17.798 92.862 C 18.184 92.983,18.500 93.138,18.500 93.207 C 18.500 93.277,18.597 93.333,18.715 93.333 C 18.833 93.333,19.602 93.551,20.423 93.817 C 21.245 94.083,22.292 94.355,22.750 94.421 C 23.208 94.488,23.660 94.602,23.753 94.676 C 24.783 95.489,40.448 95.496,40.997 94.684 C 41.044 94.613,41.611 94.470,42.257 94.365 C 42.902 94.261,43.906 94.023,44.487 93.837 C 45.068 93.652,45.616 93.500,45.705 93.500 C 45.794 93.500,46.103 93.389,46.391 93.253 C 46.680 93.118,47.217 92.904,47.583 92.778 L 48.250 92.550 48.294 86.192 L 48.337 79.833 47.960 79.834 C 47.753 79.835,47.396 79.933,47.167 80.052 C 46.938 80.171,46.375 80.371,45.917 80.497 C 45.458 80.623,45.046 80.775,45.000 80.836 C 44.954 80.897,44.242 81.085,43.417 81.254 C 42.592 81.423,41.877 81.618,41.829 81.688 C 41.781 81.757,40.938 81.910,39.954 82.027 C 38.971 82.143,38.167 82.298,38.167 82.369 C 38.167 82.555,31.222 82.532,30.873 82.345 C 30.714 82.260,30.002 82.099,29.292 81.988 C 28.581 81.877,28.000 81.731,28.000 81.664 C 28.000 81.597,27.760 81.494,27.466 81.435 C 26.858 81.313,25.034 80.454,24.167 79.880 C 23.846 79.668,23.433 79.402,23.250 79.289 C 22.747 78.979,19.500 75.665,19.500 75.461 C 19.500 75.410,19.212 74.891,18.860 74.309 C 18.508 73.726,18.083 72.875,17.915 72.417 C 17.747 71.958,17.557 71.508,17.494 71.417 C 17.431 71.325,17.252 70.688,17.096 70.000 C 16.941 69.313,16.751 68.632,16.674 68.489 C 16.166 67.535,16.037 59.825,16.490 57.500 C 16.771 56.058,17.344 53.912,17.588 53.391 C 17.723 53.103,17.833 52.820,17.833 52.764 C 17.833 52.665,18.831 50.617,19.238 49.880 C 19.938 48.614,21.542 46.867,23.114 45.659 C 23.464 45.390,23.841 45.095,23.951 45.002 C 24.062 44.909,24.221 44.833,24.304 44.833 C 24.387 44.833,24.634 44.695,24.853 44.526 C 25.071 44.357,25.625 44.080,26.083 43.910 C 26.542 43.740,26.954 43.554,27.000 43.498 C 27.699 42.641,38.226 41.904,39.683 42.610 C 39.903 42.717,40.750 42.929,41.565 43.082 C 42.380 43.235,43.167 43.423,43.315 43.500 C 43.463 43.578,44.050 43.763,44.620 43.911 C 45.190 44.059,45.865 44.290,46.120 44.423 C 46.375 44.556,46.753 44.665,46.960 44.666 L 47.337 44.667 47.294 38.298 L 47.250 31.928 46.417 31.660 C 45.958 31.513,45.358 31.298,45.083 31.183 C 44.808 31.068,44.171 30.894,43.667 30.796 C 43.163 30.697,42.675 30.560,42.583 30.490 C 42.492 30.420,41.592 30.237,40.583 30.084 C 39.575 29.931,38.600 29.723,38.417 29.622 C 38.082 29.437,29.286 29.293,27.625 29.446 M53.333 31.159 C 53.333 31.449,53.970 33.039,54.839 34.917 C 55.008 35.283,55.197 35.790,55.258 36.042 C 55.319 36.294,55.427 36.500,55.496 36.500 C 55.566 36.500,55.718 36.837,55.833 37.250 C 55.949 37.662,56.097 38.000,56.162 38.000 C 56.227 38.000,56.417 38.450,56.583 39.000 C 56.750 39.550,56.939 40.000,57.005 40.000 C 57.070 40.000,57.218 40.337,57.333 40.750 C 57.449 41.162,57.597 41.500,57.662 41.500 C 57.727 41.500,57.874 41.819,57.988 42.208 C 58.102 42.598,58.290 43.067,58.405 43.250 C 58.521 43.433,58.745 43.976,58.904 44.456 C 59.062 44.937,59.251 45.366,59.323 45.410 C 59.395 45.455,59.549 45.831,59.665 46.246 C 59.782 46.661,59.934 47.000,60.004 47.000 C 60.073 47.000,60.181 47.206,60.242 47.458 C 60.303 47.710,60.490 48.217,60.658 48.583 C 60.826 48.950,61.159 49.677,61.398 50.198 C 61.637 50.719,61.833 51.200,61.833 51.265 C 61.833 51.331,62.058 51.861,62.333 52.443 C 62.608 53.025,62.833 53.613,62.833 53.750 C 62.833 53.888,62.896 54.000,62.974 54.000 C 63.051 54.000,63.207 54.319,63.321 54.708 C 63.435 55.098,63.623 55.567,63.739 55.750 C 63.855 55.933,64.046 56.383,64.163 56.750 C 64.280 57.117,64.474 57.604,64.594 57.833 C 64.925 58.468,65.667 60.134,65.667 60.241 C 65.667 60.332,65.873 60.807,66.773 62.781 C 66.989 63.257,67.167 63.702,67.167 63.770 C 67.167 63.839,67.308 64.200,67.481 64.572 C 68.349 66.441,68.667 67.154,68.667 67.235 C 68.667 67.284,68.846 67.719,69.064 68.203 C 69.283 68.687,69.658 69.517,69.898 70.047 C 70.137 70.576,70.333 71.056,70.333 71.112 C 70.333 71.205,70.457 71.491,71.336 73.417 C 71.503 73.783,71.736 74.365,71.854 74.708 C 71.971 75.052,72.127 75.333,72.200 75.333 C 72.273 75.333,72.333 75.439,72.333 75.569 C 72.333 75.794,73.170 77.850,73.832 79.250 C 74.005 79.617,74.197 80.123,74.258 80.375 C 74.319 80.627,74.427 80.833,74.496 80.833 C 74.566 80.833,74.718 81.171,74.833 81.583 C 74.949 81.996,75.094 82.333,75.157 82.333 C 75.219 82.333,75.405 82.783,75.570 83.333 C 75.735 83.883,75.936 84.333,76.018 84.333 C 76.100 84.333,76.167 84.442,76.167 84.575 C 76.167 84.829,77.547 88.117,78.284 89.621 C 78.483 90.026,78.502 90.214,78.360 90.385 C 78.256 90.510,78.057 90.943,77.917 91.348 C 77.777 91.752,77.555 92.308,77.423 92.583 C 76.777 93.934,76.333 95.001,76.333 95.203 C 76.333 95.325,76.233 95.574,76.110 95.755 C 75.987 95.935,75.744 96.496,75.570 97.000 C 75.395 97.504,75.206 97.954,75.150 98.000 C 75.093 98.046,74.943 98.383,74.816 98.750 C 74.689 99.117,74.537 99.454,74.479 99.500 C 74.420 99.546,74.246 99.956,74.092 100.413 C 73.938 100.869,73.751 101.319,73.678 101.413 C 73.604 101.506,73.447 101.883,73.330 102.250 C 73.212 102.617,73.021 103.067,72.906 103.250 C 72.790 103.433,72.602 103.902,72.488 104.292 C 72.374 104.681,72.227 105.000,72.162 105.000 C 72.097 105.000,71.948 105.339,71.832 105.754 C 71.716 106.169,71.562 106.545,71.490 106.590 C 71.418 106.634,71.229 107.063,71.070 107.544 C 70.912 108.024,70.689 108.567,70.575 108.750 C 70.461 108.933,70.314 109.271,70.247 109.500 C 70.136 109.885,69.780 110.707,68.981 112.428 C 68.808 112.800,68.667 113.161,68.667 113.228 C 68.667 113.344,68.537 113.647,67.569 115.787 C 67.352 116.266,67.123 116.865,67.060 117.119 C 66.996 117.373,66.844 117.680,66.722 117.802 C 66.600 117.924,66.500 118.136,66.500 118.272 C 66.500 118.492,66.300 118.982,65.422 120.917 C 64.730 122.443,64.333 123.390,64.333 123.520 C 64.333 123.768,79.595 123.707,79.785 123.458 C 79.873 123.344,80.044 122.987,80.165 122.667 C 80.375 122.112,80.840 121.046,81.509 119.583 C 81.677 119.217,81.864 118.710,81.925 118.458 C 81.986 118.206,82.093 118.000,82.163 118.000 C 82.233 118.000,82.385 117.661,82.501 117.246 C 82.617 116.831,82.771 116.455,82.843 116.410 C 82.916 116.366,83.103 115.937,83.259 115.456 C 83.416 114.976,83.600 114.508,83.669 114.417 C 83.737 114.325,84.036 113.688,84.332 113.000 C 84.629 112.313,85.049 111.358,85.265 110.879 C 85.481 110.401,85.710 109.801,85.774 109.548 C 85.837 109.294,85.986 108.990,86.105 108.871 C 86.223 108.753,86.369 108.396,86.429 108.078 C 86.488 107.760,86.598 107.500,86.672 107.500 C 86.747 107.500,86.893 107.219,86.998 106.875 C 87.103 106.531,87.363 105.875,87.576 105.417 C 88.538 103.347,88.667 103.054,88.667 102.938 C 88.667 102.822,88.797 102.518,89.769 100.370 C 89.988 99.886,90.167 99.435,90.167 99.368 C 90.167 99.300,90.310 98.978,90.484 98.652 C 90.659 98.326,90.896 97.746,91.011 97.363 C 91.126 96.980,91.273 96.667,91.338 96.667 C 91.403 96.667,91.551 96.329,91.667 95.917 C 91.782 95.504,91.934 95.167,92.004 95.167 C 92.073 95.167,92.181 94.960,92.242 94.708 C 92.303 94.456,92.490 93.950,92.658 93.583 C 92.826 93.217,93.159 92.490,93.398 91.969 C 93.637 91.447,93.833 90.981,93.833 90.932 C 93.833 90.883,94.021 90.428,94.250 89.922 C 94.479 89.415,94.858 88.576,95.092 88.058 C 95.327 87.540,95.561 86.903,95.613 86.642 C 95.666 86.380,95.768 86.167,95.841 86.167 C 95.914 86.167,96.066 85.885,96.179 85.542 C 96.292 85.198,96.477 84.767,96.590 84.583 C 96.703 84.400,96.891 83.950,97.007 83.583 C 97.122 83.217,97.312 82.767,97.428 82.583 C 97.543 82.400,97.731 81.931,97.845 81.542 C 97.959 81.152,98.108 80.833,98.175 80.833 C 98.242 80.833,98.348 80.630,98.411 80.380 C 98.473 80.131,98.702 79.550,98.918 79.089 C 99.135 78.627,99.362 78.044,99.424 77.792 C 99.486 77.540,99.595 77.333,99.667 77.333 C 99.738 77.333,99.848 77.130,99.911 76.880 C 99.973 76.631,100.202 76.050,100.418 75.589 C 100.635 75.127,100.862 74.544,100.924 74.292 C 100.986 74.040,101.095 73.833,101.167 73.833 C 101.238 73.833,101.348 73.630,101.411 73.380 C 101.517 72.958,101.903 72.051,102.678 70.398 C 102.855 70.022,103.000 69.668,103.000 69.612 C 103.000 69.556,103.187 69.095,103.417 68.588 C 103.646 68.081,104.021 67.252,104.250 66.745 C 104.479 66.238,104.667 65.784,104.667 65.735 C 104.667 65.686,104.863 65.219,105.102 64.698 C 105.341 64.177,105.674 63.450,105.842 63.083 C 106.010 62.717,106.197 62.210,106.258 61.958 C 106.319 61.706,106.427 61.500,106.496 61.500 C 106.566 61.500,106.718 61.161,106.835 60.746 C 106.951 60.331,107.105 59.955,107.177 59.910 C 107.250 59.865,107.399 59.548,107.509 59.206 C 107.691 58.640,107.940 58.055,108.842 56.083 C 109.010 55.717,109.197 55.210,109.258 54.958 C 109.319 54.706,109.428 54.500,109.500 54.500 C 109.572 54.500,109.765 54.050,109.930 53.500 C 110.095 52.950,110.281 52.500,110.343 52.500 C 110.406 52.500,110.551 52.163,110.667 51.750 C 110.782 51.337,110.934 51.000,111.004 51.000 C 111.073 51.000,111.181 50.794,111.242 50.542 C 111.303 50.290,111.492 49.783,111.661 49.417 C 111.831 49.050,112.211 48.188,112.505 47.500 C 112.799 46.813,113.172 45.950,113.333 45.583 C 113.495 45.217,113.868 44.354,114.162 43.667 C 114.456 42.979,114.835 42.117,115.005 41.750 C 115.175 41.383,115.364 40.877,115.425 40.625 C 115.486 40.373,115.593 40.167,115.663 40.167 C 115.733 40.167,115.885 39.829,116.000 39.417 C 116.115 39.004,116.267 38.667,116.337 38.667 C 116.407 38.667,116.514 38.460,116.575 38.208 C 116.636 37.956,116.825 37.450,116.995 37.083 C 117.165 36.717,117.544 35.854,117.838 35.167 C 118.132 34.479,118.504 33.617,118.666 33.250 C 119.400 31.580,119.667 30.953,119.667 30.895 C 119.667 30.861,115.881 30.833,111.254 30.833 L 102.841 30.833 102.608 31.208 C 102.480 31.415,102.274 31.940,102.151 32.375 C 102.028 32.810,101.877 33.167,101.815 33.167 C 101.753 33.167,101.652 33.370,101.589 33.619 C 101.527 33.868,101.339 34.374,101.172 34.744 C 101.004 35.114,100.773 35.735,100.657 36.125 C 100.542 36.515,100.400 36.833,100.342 36.833 C 100.285 36.833,100.090 37.321,99.910 37.917 C 99.730 38.512,99.535 39.000,99.476 39.000 C 99.418 39.000,99.318 39.205,99.255 39.456 C 99.192 39.706,98.959 40.309,98.737 40.794 C 98.515 41.279,98.331 41.768,98.328 41.880 C 98.325 41.992,98.138 42.458,97.913 42.917 C 97.688 43.375,97.502 43.877,97.502 44.032 C 97.501 44.187,97.431 44.356,97.346 44.409 C 97.261 44.461,97.063 44.897,96.905 45.377 C 96.748 45.857,96.517 46.398,96.393 46.579 C 96.268 46.760,96.164 47.022,96.161 47.162 C 96.159 47.302,95.972 47.792,95.746 48.250 C 95.521 48.708,95.336 49.198,95.335 49.338 C 95.334 49.478,95.230 49.740,95.104 49.921 C 94.978 50.102,94.739 50.681,94.574 51.208 C 94.408 51.735,94.225 52.167,94.166 52.167 C 94.108 52.167,93.958 52.542,93.833 53.000 C 93.709 53.458,93.557 53.833,93.497 53.833 C 93.436 53.833,93.247 54.321,93.077 54.917 C 92.907 55.513,92.719 56.000,92.660 56.000 C 92.601 56.000,92.458 56.319,92.343 56.708 C 92.227 57.098,92.075 57.492,92.006 57.583 C 91.936 57.675,91.742 58.200,91.575 58.750 C 91.408 59.300,91.225 59.788,91.169 59.833 C 91.059 59.923,90.487 61.404,90.042 62.750 C 89.890 63.208,89.718 63.621,89.659 63.667 C 89.600 63.712,89.497 63.972,89.430 64.244 C 89.363 64.516,89.172 65.041,89.004 65.411 C 88.836 65.781,88.611 66.414,88.503 66.818 C 88.395 67.222,88.209 67.710,88.090 67.902 C 87.970 68.093,87.821 68.472,87.758 68.744 C 87.694 69.016,87.505 69.541,87.336 69.911 C 87.168 70.281,86.978 70.865,86.913 71.208 C 86.849 71.552,86.730 71.833,86.648 71.833 C 86.567 71.833,86.494 71.965,86.487 72.125 C 86.479 72.291,86.398 72.202,86.298 71.917 C 86.201 71.642,86.066 71.342,85.998 71.250 C 85.929 71.158,85.745 70.633,85.588 70.083 C 85.430 69.533,85.244 69.008,85.173 68.917 C 85.102 68.825,84.912 68.337,84.750 67.833 C 84.588 67.329,84.402 66.842,84.336 66.750 C 84.269 66.658,84.113 66.227,83.988 65.792 C 83.863 65.356,83.711 65.000,83.650 65.000 C 83.589 65.000,83.451 64.644,83.342 64.208 C 83.234 63.773,83.052 63.267,82.939 63.083 C 82.825 62.900,82.627 62.413,82.498 62.000 C 82.369 61.587,82.216 61.212,82.157 61.167 C 82.097 61.121,81.916 60.671,81.753 60.167 C 81.589 59.663,81.401 59.175,81.333 59.083 C 81.265 58.992,81.116 58.617,81.000 58.250 C 80.884 57.883,80.735 57.508,80.667 57.417 C 80.599 57.325,80.411 56.837,80.247 56.333 C 80.084 55.829,79.903 55.379,79.843 55.333 C 79.784 55.288,79.630 54.913,79.500 54.500 C 79.370 54.087,79.216 53.712,79.157 53.667 C 79.097 53.621,78.915 53.171,78.751 52.667 C 78.586 52.163,78.350 51.602,78.226 51.421 C 78.102 51.240,78.000 50.975,78.000 50.831 C 78.000 50.688,77.852 50.280,77.670 49.924 C 77.489 49.568,77.253 49.009,77.147 48.680 C 77.040 48.352,76.851 47.935,76.726 47.755 C 76.602 47.574,76.500 47.319,76.500 47.187 C 76.500 47.056,76.318 46.564,76.096 46.094 C 75.873 45.624,75.640 45.035,75.578 44.786 C 75.515 44.537,75.403 44.333,75.329 44.333 C 75.254 44.333,75.140 44.090,75.075 43.792 C 75.010 43.494,74.784 42.874,74.574 42.414 C 74.364 41.954,74.141 41.373,74.078 41.122 C 74.015 40.872,73.911 40.667,73.846 40.667 C 73.781 40.667,73.592 40.235,73.426 39.708 C 73.261 39.181,73.022 38.602,72.896 38.421 C 72.770 38.240,72.667 37.991,72.667 37.866 C 72.667 37.670,72.318 36.796,71.422 34.750 C 71.302 34.475,71.147 34.063,71.079 33.833 C 71.010 33.604,70.814 33.155,70.643 32.836 C 70.473 32.516,70.333 32.190,70.333 32.111 C 70.333 32.032,70.212 31.712,70.064 31.400 L 69.795 30.833 61.564 30.833 C 53.513 30.833,53.333 30.840,53.333 31.159 " stroke="none" fill="#00bb66" fill-rule="evenodd"></path><path id="path4" d="" stroke="none" fill="#00ff00" fill-rule="evenodd"></path></g></svg>