<?xml version="1.0" encoding="utf-8"?>
<!-- Generator: Adobe Illustrator 21.1.0, SVG Export Plug-In . SVG Version: 6.00 Build 0)  -->
<svg version="1.1" id="Layer_1" xmlns="http://www.w3.org/2000/svg" xmlns:xlink="http://www.w3.org/1999/xlink" x="0px" y="0px"
	 viewBox="0 0 16 16" style="enable-background:new 0 0 16 16;" xml:space="preserve">
<style type="text/css">
	.st0{fill:#767676;}
	.st1{fill:none;}
</style>
<title>Arrow</title>
<path class="st0" d="M12.7,10.7l-4,4c-0.4,0.4-1,0.4-1.4,0l-4-4c-0.4-0.4-0.4-1,0-1.4c0.4-0.4,1-0.4,1.4,0l0,0L7,11.6V2
	c0-0.6,0.4-1,1-1s1,0.4,1,1v9.6l2.3-2.3c0.4-0.4,1-0.4,1.4,0C13.1,9.7,13.1,10.3,12.7,10.7L12.7,10.7z"/>
<path class="st1" d="M16,0v16H0V0H16z"/>
</svg>
